<?xml version="1.0" encoding="UTF-8" standalone="no"?>
<svg
   xmlns:dc="http://purl.org/dc/elements/1.1/"
   xmlns:cc="http://creativecommons.org/ns#"
   xmlns:rdf="http://www.w3.org/1999/02/22-rdf-syntax-ns#"
   xmlns:svg="http://www.w3.org/2000/svg"
   xmlns="http://www.w3.org/2000/svg"
   xmlns:sodipodi="http://sodipodi.sourceforge.net/DTD/sodipodi-0.dtd"
   xmlns:inkscape="http://www.inkscape.org/namespaces/inkscape"
   version="1.1"
   id="Layer_1"
   x="0"
   y="0"
   width="250.56973"
   height="255.746"
   viewBox="0 0 250.56973 255.74601"
   xml:space="preserve"
   sodipodi:docname="krew-logo-square.svg"
   inkscape:export-filename="C:\Users\SimonE\Documents\SimonsDocuments\IT\ReferenceAndTraining\Kubernetes\Topics\Images\Icons\krew-logo.png"
   inkscape:export-xdpi="30.035944"
   inkscape:export-ydpi="30.035944"
   inkscape:version="1.0.2-2 (e86c870879, 2021-01-15)"><metadata
     id="metadata73"><rdf:RDF><cc:Work
         rdf:about=""><dc:format>image/svg+xml</dc:format><dc:type
           rdf:resource="http://purl.org/dc/dcmitype/StillImage" /><dc:title></dc:title></cc:Work></rdf:RDF></metadata><defs
     id="defs71" /><sodipodi:namedview
     pagecolor="#ffffff"
     bordercolor="#666666"
     borderopacity="1"
     objecttolerance="10"
     gridtolerance="10"
     guidetolerance="10"
     inkscape:pageopacity="0"
     inkscape:pageshadow="2"
     inkscape:window-width="1920"
     inkscape:window-height="1137"
     id="namedview69"
     showgrid="false"
     inkscape:zoom="1.4336777"
     inkscape:cx="378.74621"
     inkscape:cy="127.873"
     inkscape:window-x="-8"
     inkscape:window-y="-8"
     inkscape:window-maximized="1"
     inkscape:current-layer="Layer_1" /><style
     type="text/css"
     id="style10997">.st0{fill:#9cf}.st1{fill:#036}.st2{fill:none;stroke:#369;stroke-width:.5;stroke-miterlimit:10}.st7,.st8{fill-rule:evenodd;clip-rule:evenodd;fill:#0091fc}.st8{fill:#0256d1}</style><g
     id="Dark"
     transform="translate(-131.85658,-27.572)"
     inkscape:export-xdpi="30.035944"
     inkscape:export-ydpi="30.035944"><g
       id="g11032"><g
         id="g11030"><g
           id="g11003"><g
             id="g11001"><path
               class="st0"
               d="m 366.574,174.085 c -0.68,0 -1.364,-0.138 -2.011,-0.422 -1.82,-0.8 -2.994,-2.604 -2.988,-4.592 l 0.072,-26.203 c 0.006,-1.869 1.053,-3.578 2.715,-4.432 0.72,-0.37 1.504,-0.553 2.285,-0.553 1.021,0 2.036,0.312 2.898,0.926 3.957,2.815 7.151,6.677 9.494,11.479 0.383,0.786 0.554,1.659 0.494,2.532 -0.535,7.863 -3.754,14.572 -9.567,19.939 -0.941,0.87 -2.159,1.326 -3.392,1.326 z"
               id="path10999"
               fill="#9cf" /></g></g><path
           class="st0"
           d="m 148.754,139.721 c -1.021,0 -2.038,-0.312 -2.901,-0.927 -4.111,-2.928 -7.43,-6.942 -9.863,-11.931 -0.383,-0.786 -0.554,-1.659 -0.495,-2.531 0.555,-8.172 3.9,-15.145 9.943,-20.722 0.942,-0.87 2.159,-1.326 3.392,-1.326 0.68,0 1.364,0.139 2.011,0.423 1.821,0.8 2.994,2.604 2.988,4.592 l -0.076,27.438 c -0.005,1.869 -1.053,3.579 -2.716,4.433 -0.719,0.369 -1.502,0.551 -2.283,0.551 z"
           id="path11005"
           fill="#9cf" /><path
           class="st0"
           d="m 150.422,211.291 c -1.233,0 -2.449,-0.456 -3.392,-1.325 -7.029,-6.485 -10.923,-14.59 -11.576,-24.09 -0.06,-0.87 0.109,-1.739 0.489,-2.523 2.808,-5.793 6.66,-10.465 11.448,-13.885 0.864,-0.617 1.883,-0.931 2.907,-0.931 0.778,0 1.559,0.181 2.278,0.549 1.664,0.852 2.713,2.56 2.722,4.429 0.04,9.078 0.072,18.169 0.104,27.253 l 0.02,5.506 c 0.007,1.989 -1.166,3.793 -2.986,4.594 -0.648,0.284 -1.334,0.423 -2.014,0.423 z"
           id="path11007"
           fill="#9cf" /><g
           id="Cube_8_"><path
             class="st0"
             d="m 360.098,141.966 c -0.337,0 -0.676,-0.034 -1.014,-0.104 -1.964,-0.406 -3.494,-1.946 -3.89,-3.911 l -0.128,-0.654 c -0.269,-1.444 0.111,-2.933 1.04,-4.072 0.928,-1.139 2.309,-1.812 3.777,-1.841 0.207,-0.004 0.412,-0.004 0.623,-0.004 1.877,0 3.597,1.052 4.451,2.723 0.855,1.671 0.702,3.681 -0.397,5.203 l -0.355,0.509 c -0.945,1.365 -2.49,2.151 -4.107,2.151 z"
             id="path11009"
             fill="#9cf" /><path
             class="st0"
             d="m 255.645,283.301 c -4.289,0 -8.615,-1.244 -12.859,-3.697 -28.955,-16.729 -57.37,-33.177 -84.451,-48.889 -10.114,-5.873 -15.465,-15.225 -15.478,-27.044 -0.023,-21.553 -0.02,-43.105 -0.017,-64.656 l 0.001,-31.786 c -0.002,-6.025 1.479,-11.427 4.399,-16.054 0.944,-1.495 2.563,-2.332 4.231,-2.332 0.741,0 1.491,0.165 2.196,0.51 l 0.286,0.136 c 0.372,0.174 0.74,0.353 1.097,0.555 l 16.908,9.63 c 21.41,12.193 42.819,24.387 64.219,36.596 5.429,3.095 10.839,6.227 16.249,9.359 l 6.915,4 c 0.587,0.339 1.1,0.794 1.505,1.337 l 0.422,0.571 c 0.586,0.803 0.92,1.762 0.958,2.755 l 0.027,0.592 c 0.026,0.549 0.052,1.099 0.052,1.647 0.003,39.698 0.003,79.397 0,119.101 0,0.523 -0.022,1.047 -0.048,1.573 l -0.027,0.642 c -0.033,0.98 -0.354,1.928 -0.923,2.728 l -0.348,0.508 c -0.865,1.267 -2.264,2.066 -3.795,2.168 -0.509,0.033 -1.016,0.05 -1.519,0.05 z"
             id="path11011"
             fill="#9cf" /><path
             class="st0"
             d="m 258.767,283.318 c -0.605,0 -1.221,-0.024 -1.826,-0.073 -2.257,-0.181 -4.109,-1.856 -4.518,-4.083 l -0.12,-0.648 c -0.057,-0.333 -0.079,-0.671 -0.067,-1.009 l 0.033,-0.771 c 0.017,-0.368 0.036,-0.735 0.036,-1.103 0.003,-39.703 0.003,-79.402 0,-119.1 0,-0.386 -0.021,-0.771 -0.04,-1.157 l -0.031,-0.696 c -0.02,-0.512 0.039,-1.021 0.173,-1.512 0.252,-1.453 1.139,-2.742 2.452,-3.49 L 360.64,89.438 c 0.779,-0.444 1.631,-0.656 2.471,-0.656 1.642,0 3.243,0.809 4.197,2.278 2.959,4.557 4.465,9.971 4.477,16.09 0.046,34.523 0.077,65.628 -0.014,96.722 -0.034,11.694 -5.38,20.966 -15.458,26.812 -27.204,15.798 -54.893,31.811 -81.67,47.296 l -2.33,1.347 c -4.641,2.686 -9.071,3.991 -13.546,3.991 z"
             id="path11013"
             fill="#9cf" /><path
             class="st0"
             d="m 257.333,159.02 c -0.292,0 -0.585,-0.025 -0.875,-0.077 -0.744,-0.057 -1.468,-0.28 -2.117,-0.655 l -6.923,-4.004 c -5.392,-3.121 -10.783,-6.242 -16.195,-9.328 -21.42,-12.221 -42.849,-24.425 -64.277,-36.629 l -16.831,-9.586 c -0.123,-0.07 -0.268,-0.132 -0.41,-0.199 l -0.435,-0.207 c -1.218,-0.597 -2.142,-1.663 -2.559,-2.954 -0.417,-1.291 -0.292,-2.696 0.348,-3.893 2.429,-4.546 6.073,-8.184 11.141,-11.12 10.273,-5.95 20.548,-11.896 30.822,-17.842 17.541,-10.151 35.082,-20.302 52.613,-30.471 5.128,-2.975 10.394,-4.483 15.652,-4.483 5.307,0 10.65,1.538 15.882,4.57 l 10.817,6.268 c 23.676,13.72 47.354,27.44 71.043,41.139 4.097,2.369 9.217,5.856 12.478,11.846 1.303,2.392 0.45,5.387 -1.917,6.735 l -105.781,60.237 c -0.762,0.431 -1.615,0.653 -2.476,0.653 z"
             id="path11015"
             fill="#9cf" /></g><path
           class="st0"
           d="m 257.23,283.181 c -2.762,0 -5,-2.239 -5,-5 V 154.304 c 0,-2.761 2.238,-5 5,-5 2.762,0 5,2.239 5,5 v 123.877 c 0,2.761 -2.238,5 -5,5 z"
           id="path11018"
           fill="#9cf" /><path
           class="st0"
           d="m 257.028,159.305 c -1.733,0 -3.419,-0.903 -4.343,-2.514 -1.373,-2.396 -0.545,-5.451 1.852,-6.825 L 360.422,89.265 c 2.395,-1.373 5.451,-0.543 6.824,1.851 1.373,2.396 0.545,5.451 -1.852,6.825 l -105.885,60.701 c -0.783,0.449 -1.638,0.663 -2.481,0.663 z"
           id="path11020"
           fill="#9cf" /><path
           class="st0"
           d="m 257.225,159.305 c -0.842,0 -1.696,-0.213 -2.479,-0.662 L 149.195,98.204 c -2.396,-1.372 -3.227,-4.427 -1.854,-6.823 1.372,-2.396 4.429,-3.226 6.823,-1.854 l 105.551,60.439 c 2.396,1.372 3.227,4.427 1.854,6.823 -0.924,1.612 -2.61,2.516 -4.344,2.516 z"
           id="path11022"
           fill="#9cf" /><path
           class="st0"
           d="m 140.482,129.671 c -1.939,0 -3.74,-1.132 -4.558,-2.949 -3.643,-8.1 -4.413,-16.836 -2.287,-25.965 1.659,-7.112 5.324,-13.61 11.534,-20.45 0.161,-0.177 0.333,-0.342 0.518,-0.494 8.904,-7.356 18.039,-10.933 27.927,-10.933 14.496,0 27.897,7.846 40.858,15.435 2.024,1.184 4.012,2.407 5.935,3.589 9.41,5.789 18.299,11.256 29.084,11.256 1.109,-0.003 2.289,-0.156 3.539,-0.318 0.67,-0.087 1.34,-0.173 2.011,-0.243 0.173,-0.018 0.346,-0.026 0.517,-0.026 2.118,0 4.033,1.345 4.729,3.386 0.752,2.205 -0.118,4.637 -2.099,5.865 -0.596,0.369 -1.181,0.762 -1.765,1.153 -1.418,0.95 -3.024,2.027 -4.85,2.859 -6.425,2.928 -13.145,4.412 -19.977,4.412 -9.073,0 -18.467,-2.481 -29.562,-7.809 -9.506,-4.567 -17.819,-6.787 -25.417,-6.787 -8.913,0 -16.923,3.07 -24.484,9.384 -4.105,3.824 -6.285,8.396 -6.664,13.972 -0.155,2.289 -1.848,4.178 -4.105,4.583 -0.295,0.054 -0.592,0.08 -0.884,0.08 z"
           id="path11024"
           fill="#9cf" /><path
           class="st0"
           d="m 180.013,251.135 c -11.556,-0.001 -22.251,-4.187 -32.696,-12.796 -0.186,-0.153 -0.36,-0.32 -0.522,-0.498 -7.297,-8.04 -11.604,-15.656 -13.553,-23.969 -2.501,-10.685 -1.613,-20.907 2.641,-30.386 0.816,-1.82 2.619,-2.954 4.56,-2.954 0.291,0 0.585,0.026 0.88,0.078 2.258,0.403 3.953,2.291 4.11,4.58 0.476,6.924 3.189,12.6 8.293,17.345 9.213,7.678 18.977,11.41 29.845,11.41 9.231,0 19.307,-2.69 30.801,-8.222 13.117,-6.32 24.21,-9.264 34.908,-9.264 8.001,0 15.876,1.737 23.406,5.163 2.094,0.953 3.887,2.148 5.622,3.305 0.716,0.478 1.433,0.956 2.164,1.406 1.986,1.222 2.863,3.654 2.115,5.863 -0.692,2.046 -2.61,3.396 -4.732,3.396 -0.169,0 -0.339,-0.008 -0.511,-0.026 -0.798,-0.082 -1.596,-0.184 -2.393,-0.286 -1.521,-0.196 -2.956,-0.38 -4.278,-0.385 -13.186,0 -23.927,6.624 -35.298,13.636 -2.281,1.407 -4.64,2.862 -7.003,4.248 -15.409,9.037 -31.297,18.355 -48.354,18.355 -0.003,0.001 -0.003,0.001 -0.005,0.001 z"
           id="path11026"
           fill="#9cf" /><path
           class="st0"
           d="m 342.903,205.987 c -13.905,0 -26.732,-7.51 -39.138,-14.773 -1.933,-1.13 -3.832,-2.299 -5.669,-3.429 -8.96,-5.512 -17.423,-10.718 -27.655,-10.718 -1.045,0.002 -2.166,0.148 -3.353,0.302 -0.641,0.083 -1.282,0.166 -1.924,0.232 -0.173,0.018 -0.346,0.026 -0.517,0.026 -2.117,0 -4.031,-1.344 -4.729,-3.382 -0.753,-2.204 0.114,-4.636 2.093,-5.865 0.561,-0.348 1.11,-0.718 1.661,-1.086 1.367,-0.917 2.917,-1.955 4.682,-2.761 6.167,-2.81 12.616,-4.233 19.174,-4.233 8.699,0 17.701,2.376 28.329,7.479 9.048,4.347 16.956,6.46 24.177,6.46 8.455,0 16.056,-2.913 23.233,-8.905 3.873,-3.611 5.931,-7.928 6.289,-13.193 0.155,-2.288 1.849,-4.177 4.106,-4.582 0.296,-0.053 0.592,-0.079 0.884,-0.079 1.939,0 3.741,1.132 4.559,2.95 3.499,7.783 4.238,16.174 2.195,24.94 -1.593,6.831 -5.109,13.068 -11.066,19.631 -0.16,0.177 -0.333,0.342 -0.518,0.494 -8.545,7.059 -17.315,10.492 -26.813,10.492 z"
           id="path11028"
           fill="#9cf" /></g></g><g
       id="g11110"><g
         id="g11108"><g
           id="g11038"><g
             id="g11036"><path
               class="st8"
               d="m 374.545,152.48 c -0.449,6.597 -3.117,12.124 -7.971,16.605 0.025,-8.733 0.046,-17.47 0.072,-26.202 3.496,2.487 6.032,5.77 7.899,9.597 z"
               id="path11034"
               clip-rule="evenodd"
               fill="#0256d1"
               fill-rule="evenodd" /></g></g><path
           class="st8"
           d="m 140.484,124.67 c 0.469,-6.908 3.263,-12.695 8.346,-17.387 -0.027,9.144 -0.048,18.293 -0.076,27.438 -3.66,-2.606 -6.315,-6.043 -8.27,-10.051 z"
           id="path11040"
           clip-rule="evenodd"
           fill="#0256d1"
           fill-rule="evenodd" /><path
           class="st8"
           d="m 140.443,185.533 c 0.567,8.255 3.908,15.157 9.978,20.758 -0.039,-10.915 -0.075,-21.844 -0.123,-32.755 -4.359,3.113 -7.535,7.211 -9.855,11.997 z"
           id="path11042"
           clip-rule="evenodd"
           fill="#0256d1"
           fill-rule="evenodd" /><g
           id="Cube_7_"><path
             d="m 360.097,136.966 c -0.039,-0.194 -0.078,-0.389 -0.114,-0.583 0.174,-0.003 0.347,-0.003 0.524,-0.003 -0.14,0.195 -0.275,0.392 -0.41,0.586 z"
             id="path11044"
             clip-rule="evenodd"
             fill="#683dfe"
             fill-rule="evenodd" /><linearGradient
             id="SVGID_1_"
             gradientUnits="userSpaceOnUse"
             x1="202.5728"
             y1="93.8433"
             x2="202.57269"
             y2="278.3013"><stop
               offset="0"
               id="stop11046"
               stop-color="#00223d" /><stop
               offset=".1241"
               id="stop11048"
               stop-color="#002542" /><stop
               offset=".5866"
               id="stop11050"
               stop-color="#002d4f" /><stop
               offset="1"
               id="stop11052"
               stop-color="#003054" /><stop
               offset="1"
               id="stop11054"
               stop-color="#00355e" /><stop
               offset="1"
               id="stop11056"
               stop-color="#004174" /><stop
               offset="1"
               id="stop11058"
               stop-color="#004b85" /><stop
               offset="1"
               id="stop11060"
               stop-color="#005190" /><stop
               offset="1"
               id="stop11062"
               stop-color="#005597" /><stop
               offset="1"
               id="stop11064"
               stop-color="#005699" /></linearGradient><path
             d="m 256.831,278.261 c -4.167,0.279 -7.991,-0.934 -11.542,-2.986 -28.163,-16.271 -56.312,-32.563 -84.445,-48.885 -8.619,-5.005 -12.976,-12.643 -12.986,-22.725 -0.035,-32.148 -0.011,-64.293 -0.016,-96.438 -0.001,-4.805 1.053,-9.306 3.627,-13.384 0.375,0.184 0.758,0.347 1.121,0.552 27.04,15.402 54.082,30.796 81.11,46.216 7.735,4.41 15.43,8.894 23.142,13.346 0.13,0.174 0.262,0.353 0.389,0.526 0.026,0.682 0.075,1.364 0.075,2.046 0.003,39.698 0.003,79.397 0,119.101 0,0.68 -0.049,1.359 -0.072,2.045 -0.136,0.19 -0.269,0.389 -0.403,0.586 z"
             id="path11067"
             clip-rule="evenodd"
             fill="url(#SVGID_1_)"
             fill-rule="evenodd"
             style="fill:url(#SVGID_1_)" /><linearGradient
             id="SVGID_2_"
             gradientUnits="userSpaceOnUse"
             x1="283.16019"
             y1="139.10941"
             x2="338.66501"
             y2="235.2467"><stop
               offset="0"
               id="stop11069"
               stop-color="#036" /><stop
               offset=".4667"
               id="stop11071"
               stop-color="#003468" /><stop
               offset=".6674"
               id="stop11073"
               stop-color="#00396f" /><stop
               offset=".8171"
               id="stop11075"
               stop-color="#00427c" /><stop
               offset=".9406"
               id="stop11077"
               stop-color="#004e8d" /><stop
               offset="1"
               id="stop11079"
               stop-color="#005699" /></linearGradient><path
             d="m 257.233,277.675 c 0.023,-0.686 0.072,-1.365 0.072,-2.045 0.003,-39.703 0.003,-79.402 0,-119.101 0,-0.682 -0.049,-1.364 -0.075,-2.046 0.078,-0.146 0.111,-0.301 0.104,-0.464 35.262,-20.08 70.523,-40.157 105.781,-60.237 2.635,4.058 3.661,8.614 3.67,13.377 0.043,32.233 0.08,64.466 -0.014,96.698 -0.029,9.941 -4.447,17.56 -12.967,22.502 -27.979,16.247 -55.986,32.442 -83.994,48.64 -3.852,2.229 -7.947,3.625 -12.469,3.262 -0.036,-0.197 -0.076,-0.396 -0.108,-0.586 z"
             id="path11082"
             clip-rule="evenodd"
             fill="url(#SVGID_2_)"
             fill-rule="evenodd"
             style="fill:url(#SVGID_2_)" /><linearGradient
             id="SVGID_3_"
             gradientUnits="userSpaceOnUse"
             x1="257.2915"
             y1="32.570801"
             x2="257.2915"
             y2="154.02"><stop
               offset="0"
               id="stop11084"
               stop-color="#036" /><stop
               offset=".3992"
               id="stop11086"
               stop-color="#004580" /><stop
               offset=".644"
               id="stop11088"
               stop-color="#004d8c" /><stop
               offset="1"
               id="stop11090"
               stop-color="#005699" /></linearGradient><path
             d="m 363.115,93.783 c -35.258,20.08 -70.52,40.157 -105.781,60.237 l -0.241,-0.067 -0.251,0.005 c -7.712,-4.452 -15.406,-8.936 -23.142,-13.346 -27.028,-15.42 -54.07,-30.814 -81.11,-46.216 -0.363,-0.205 -0.746,-0.369 -1.121,-0.552 2.149,-4.022 5.385,-6.918 9.237,-9.15 27.811,-16.107 55.637,-32.189 83.437,-48.314 8.886,-5.155 17.692,-5.028 26.519,0.088 27.283,15.809 54.566,31.624 81.864,47.409 4.296,2.483 8.14,5.408 10.589,9.906 z"
             id="path11093"
             clip-rule="evenodd"
             fill="url(#SVGID_3_)"
             fill-rule="evenodd"
             style="fill:url(#SVGID_3_)" /></g><path
           class="st2"
           id="line11096"
           fill="none"
           stroke="#369"
           stroke-width=".5"
           stroke-miterlimit="10"
           d="M 257.23001,154.304 V 278.181" /><path
           class="st2"
           id="line11098"
           fill="none"
           stroke="#369"
           stroke-width=".5"
           stroke-miterlimit="10"
           d="M 257.02301,154.304 362.90799,93.603996" /><path
           class="st2"
           id="line11100"
           fill="none"
           stroke="#369"
           stroke-width=".5"
           stroke-miterlimit="10"
           d="M 257.23001,154.304 151.679,93.864998" /><path
           class="st7"
           d="m 148.873,83.667 c 22.655,-18.718 42.785,-6.917 63.104,4.979 11.772,6.886 22.926,15.541 37.584,15.514 1.997,-0.006 3.994,-0.38 5.995,-0.587 -2.017,1.25 -3.915,2.737 -6.057,3.715 -15.694,7.151 -30.486,3.756 -45.299,-3.356 -18.907,-9.084 -37.748,-11.435 -55.372,3.352 -5.083,4.691 -7.877,10.479 -8.346,17.387 -3.312,-7.364 -3.802,-14.944 -1.977,-22.78 1.664,-7.125 5.557,-12.924 10.368,-18.224 z"
           id="path11102"
           clip-rule="evenodd"
           fill="#0091fc"
           fill-rule="evenodd" /><path
           class="st7"
           d="m 150.497,234.48 c 27.072,22.315 51.093,8.21 75.344,-6.013 14.049,-8.243 27.362,-18.584 44.848,-18.571 2.387,0.008 4.77,0.452 7.162,0.696 -2.416,-1.486 -4.683,-3.257 -7.236,-4.419 -18.744,-8.526 -36.397,-4.462 -54.076,4.056 -22.564,10.859 -45.054,13.686 -66.118,-3.938 -6.07,-5.601 -9.411,-12.503 -9.978,-20.758 -3.947,8.795 -4.523,17.849 -2.334,27.197 1.994,8.503 6.647,15.425 12.388,21.75 z"
           id="path11104"
           clip-rule="evenodd"
           fill="#0091fc"
           fill-rule="evenodd" /><path
           class="st7"
           d="m 366.533,191.639 c -21.636,17.876 -40.859,6.607 -60.268,-4.756 -11.24,-6.575 -21.895,-14.842 -35.889,-14.816 -1.908,0.005 -3.816,0.363 -5.726,0.561 1.921,-1.193 3.739,-2.613 5.782,-3.547 14.987,-6.828 29.113,-3.587 43.261,3.205 18.058,8.676 36.05,10.921 52.881,-3.2 4.854,-4.481 7.521,-10.009 7.971,-16.605 3.163,7.034 3.63,14.272 1.887,21.755 -1.587,6.803 -5.304,12.341 -9.899,17.403 z"
           id="path11106"
           clip-rule="evenodd"
           fill="#0091fc"
           fill-rule="evenodd" /></g></g></g></svg>
