<?xml version="1.0" encoding="UTF-8" standalone="no"?>
<svg
   xmlns:dc="http://purl.org/dc/elements/1.1/"
   xmlns:cc="http://creativecommons.org/ns#"
   xmlns:rdf="http://www.w3.org/1999/02/22-rdf-syntax-ns#"
   xmlns:svg="http://www.w3.org/2000/svg"
   xmlns="http://www.w3.org/2000/svg"
   xmlns:sodipodi="http://sodipodi.sourceforge.net/DTD/sodipodi-0.dtd"
   xmlns:inkscape="http://www.inkscape.org/namespaces/inkscape"
   viewBox="0 0 32 32"
   width="64"
   height="64"
   version="1.1"
   id="svg86"
   sodipodi:docname="kubectl-logo.svg"
   inkscape:export-filename="C:\Users\SimonE\Documents\SimonsDocuments\IT\ReferenceAndTraining\Kubernetes\Topics\Images\Icons\kubectl-logo.png"
   inkscape:export-xdpi="149.97171"
   inkscape:export-ydpi="149.97171"
   inkscape:version="1.0.2-2 (e86c870879, 2021-01-15)">
  <metadata
     id="metadata92">
    <rdf:RDF>
      <cc:Work
         rdf:about="">
        <dc:format>image/svg+xml</dc:format>
        <dc:type
           rdf:resource="http://purl.org/dc/dcmitype/StillImage" />
      </cc:Work>
    </rdf:RDF>
  </metadata>
  <defs
     id="defs90">
    <rect
       x="16.282993"
       y="14.846259"
       width="6.4435374"
       height="7.5319728"
       id="rect128" />
    <inkscape:perspective
       sodipodi:type="inkscape:persp3d"
       inkscape:vp_x="0 : 16 : 1"
       inkscape:vp_y="0 : 1000 : 0"
       inkscape:vp_z="32 : 16 : 1"
       inkscape:persp3d-origin="16 : 10.666667 : 1"
       id="perspective114" />
  </defs>
  <sodipodi:namedview
     pagecolor="#ffffff"
     bordercolor="#666666"
     borderopacity="1"
     objecttolerance="10"
     gridtolerance="10"
     guidetolerance="10"
     inkscape:pageopacity="0"
     inkscape:pageshadow="2"
     inkscape:window-width="1920"
     inkscape:window-height="1137"
     id="namedview88"
     showgrid="false"
     inkscape:zoom="11.484375"
     inkscape:cx="26.514286"
     inkscape:cy="30.345712"
     inkscape:window-x="-8"
     inkscape:window-y="-8"
     inkscape:window-maximized="1"
     inkscape:current-layer="svg86" />
  <path
     d="m 15.89362,-0.35066234 a 2.2622556,2.2540181 0 0 0 -0.870016,0.22961492 L 3.241903,5.4781863 C 2.6266541,5.7699447 2.1794886,6.3250229 2.0262049,6.9864825 L -0.85764253,19.553159 c -0.13742668,0.589837 -0.0264279,1.208112 0.31713872,1.713686 q 0.0602558,0.09163 0.1268554,0.176951 L 7.7262435,31.527894 c 0.4302514,0.526639 1.0761571,0.82893 1.7569481,0.825771 H 22.538733 c 0.682905,10e-4 1.329868,-0.315984 1.759061,-0.835251 L 32.433458,21.43221 c 0.427081,-0.526639 0.586706,-1.221804 0.422852,-1.881157 L 29.953434,6.9738431 C 29.80015,6.3123836 29.350871,5.7573053 28.737736,5.465547 L 16.975063,-0.11999415 a 2.2622556,2.2540181 0 0 0 -1.092014,-0.23066819 z"
     fill="#326ce5"
     id="path82"
     style="stroke-width:1.0552" />
  <path
     d="M 15.904019,1.0206835 A 2.0555805,2.0649881 0 0 0 15.113485,1.2310421 L 4.4081368,6.3607042 C 3.8490957,6.6279947 3.4427824,7.1365221 3.3035024,7.7425093 L 0.68311756,19.2553 c -0.1248718,0.540371 -0.024014,1.106795 0.28816538,1.56997 q 0.054752,0.08395 0.11526616,0.162111 l 7.3962478,9.23841 c 0.3909445,0.482474 0.9778419,0.759414 1.5964371,0.756519 h 11.862813 c 0.620516,9.65e-4 1.208374,-0.289484 1.598358,-0.765204 l 7.392405,-9.240339 c 0.388063,-0.482474 0.533107,-1.119339 0.384221,-1.723397 L 28.679356,7.7309299 C 28.540076,7.1249428 28.131842,6.6164153 27.574722,6.3491248 L 16.886664,1.2320071 a 2.0555805,2.0649881 0 0 0 -0.99225,-0.2113236 z"
     fill="#326ce5"
     id="path82-2"
     style="fill:#000000;stroke-width:0.962747" />
  <rect
     style="fill:#000000;stroke:#ffffff;stroke-width:0.724074"
     id="rect116"
     width="14.709259"
     height="12.575926"
     x="8.648037"
     y="5.728363" />
  <text
     xml:space="preserve"
     style="font-size:42.6666px;line-height:1.25;font-family:Calibri;-inkscape-font-specification:Calibri;stroke-width:0.5;font-weight:normal;font-style:normal;font-stretch:normal;font-variant:normal;"
     x="10.62313"
     y="16.370068"
     id="text120"><tspan
       sodipodi:role="line"
       id="tspan118"
       x="10.62313"
       y="16.370068"
       style="stroke-width:0.5;-inkscape-font-specification:Calibri;font-family:Calibri;font-weight:normal;font-style:normal;font-stretch:normal;font-variant:normal;"></tspan></text>
  <text
     xml:space="preserve"
     style="font-style:normal;font-variant:normal;font-weight:normal;font-stretch:normal;font-size:10.6667px;line-height:1.25;font-family:Calibri;-inkscape-font-specification:Calibri;fill:#ffffff;stroke-width:0.5"
     x="10.840816"
     y="14.410885"
     id="text124"><tspan
       sodipodi:role="line"
       id="tspan122"
       x="10.840816"
       y="14.410885"
       style="font-style:normal;font-variant:normal;font-weight:normal;font-stretch:normal;font-size:10.6667px;font-family:Calibri;-inkscape-font-specification:Calibri;fill:#ffffff;stroke-width:0.5">&gt;_</tspan></text>
  <text
     xml:space="preserve"
     id="text126"
     style="line-height:1.25;font-family:'Britannic Bold';font-size:6.66666667px;-inkscape-font-specification:'Britannic Bold, ';white-space:pre;shape-inside:url(#rect128);" />
  <text
     xml:space="preserve"
     style="font-size:6.66665px;line-height:1.25;font-family:Consolas;-inkscape-font-specification:Consolas;fill:#ffffff;stroke-width:0.5;font-weight:normal;font-style:normal;font-stretch:normal;font-variant:normal;"
     x="7.1836734"
     y="25.643538"
     id="text134"><tspan
       sodipodi:role="line"
       id="tspan132"
       x="7.1836734"
       y="25.643538"
       style="fill:#ffffff;stroke-width:0.5;-inkscape-font-specification:Consolas;font-family:Consolas;font-weight:normal;font-style:normal;font-stretch:normal;font-variant:normal;" /></text>
  <text
     xml:space="preserve"
     style="font-style:normal;font-variant:normal;font-weight:normal;font-stretch:normal;font-size:6.66665px;line-height:1.25;font-family:Consolas;-inkscape-font-specification:Consolas;fill:#ffffff;stroke-width:0.5"
     x="3.1782317"
     y="23.989117"
     id="text138"><tspan
       sodipodi:role="line"
       id="tspan136"
       x="3.1782317"
       y="23.989117"
       style="font-style:normal;font-variant:normal;font-weight:normal;font-stretch:normal;font-family:Consolas;-inkscape-font-specification:Consolas;fill:#ffffff;stroke-width:0.5">kubectl</tspan></text>
</svg>
